<svg width="16" height="16" viewBox="0 0 16 16" fill="none" xmlns="http://www.w3.org/2000/svg">
<path fill-rule="evenodd" clip-rule="evenodd" d="M5.5 8C5.5 7.33696 5.76339 6.70107 6.23223 6.23223C6.70107 5.76339 7.33696 5.5 8 5.5C8.66304 5.5 9.29893 5.76339 9.76777 6.23223C10.2366 6.70107 10.5 7.33696 10.5 8C10.5 8.66304 10.2366 9.29893 9.76777 9.76777C9.29893 10.2366 8.66304 10.5 8 10.5C7.33696 10.5 6.70107 10.2366 6.23223 9.76777C5.76339 9.29893 5.5 8.66304 5.5 8ZM8 6.5C7.60218 6.5 7.22064 6.65804 6.93934 6.93934C6.65804 7.22064 6.5 7.60218 6.5 8C6.5 8.39782 6.65804 8.77936 6.93934 9.06066C7.22064 9.34196 7.60218 9.5 8 9.5C8.39782 9.5 8.77936 9.34196 9.06066 9.06066C9.34196 8.77936 9.5 8.39782 9.5 8C9.5 7.60218 9.34196 7.22064 9.06066 6.93934C8.77936 6.65804 8.39782 6.5 8 6.5Z" fill="#4AA4D9"/>
<path fill-rule="evenodd" clip-rule="evenodd" d="M2.882 7.09733C2.60267 7.5 2.5 7.81533 2.5 8C2.5 8.18467 2.60267 8.5 2.882 8.90267C3.15267 9.29133 3.554 9.71333 4.062 10.1033C5.08 10.8847 6.47533 11.5 8 11.5C9.52467 11.5 10.92 10.8847 11.938 10.1033C12.446 9.71333 12.8473 9.29133 13.118 8.90267C13.3973 8.5 13.5 8.18467 13.5 8C13.5 7.81533 13.3973 7.5 13.118 7.09733C12.8473 6.70867 12.446 6.28667 11.938 5.89667C10.92 5.11533 9.52467 4.5 8 4.5C6.47533 4.5 5.08 5.11533 4.062 5.89667C3.554 6.28667 3.15267 6.70867 2.882 7.09733ZM3.45267 5.10333C4.60667 4.218 6.21067 3.5 8 3.5C9.78933 3.5 11.3933 4.218 12.5467 5.10333C13.1247 5.54667 13.602 6.04133 13.9393 6.52733C14.2673 7 14.5 7.518 14.5 8C14.5 8.482 14.2667 9 13.9393 9.47267C13.602 9.95867 13.1247 10.4527 12.5473 10.8967C11.394 11.782 9.78933 12.5 8 12.5C6.21067 12.5 4.60667 11.782 3.45333 10.8967C2.87533 10.4533 2.398 9.95867 2.06067 9.47267C1.73333 9 1.5 8.482 1.5 8C1.5 7.518 1.73333 7 2.06067 6.52733C2.398 6.04133 2.87533 5.54733 3.45267 5.10333Z" fill="#4AA4D9"/>
</svg>
