<svg width="6" height="6" viewBox="0 0 6 6" fill="none" xmlns="http://www.w3.org/2000/svg">
<path d="M1.24985 0.750143L1.24985 5.25014C1.24999 5.2957 1.26256 5.34036 1.2862 5.37931C1.30983 5.41826 1.34364 5.45003 1.38399 5.47119C1.42434 5.49236 1.46969 5.50211 1.51517 5.49942C1.56065 5.49672 1.60454 5.48168 1.6421 5.45589L4.8921 3.20589C5.02685 3.11264 5.02685 2.88814 4.8921 2.79464L1.6421 0.544643C1.60462 0.5186 1.56071 0.503327 1.51515 0.500485C1.4696 0.497642 1.42413 0.507339 1.3837 0.528522C1.34327 0.549704 1.30941 0.581562 1.28582 0.620634C1.26222 0.659707 1.24978 0.704498 1.24985 0.750143Z" fill="black"/>
</svg>
