<svg width="14" height="9" viewBox="0 0 14 9" fill="none" xmlns="http://www.w3.org/2000/svg">
<path d="M13.692 1.94205L7.44205 8.19205C7.384 8.25016 7.31507 8.29626 7.2392 8.32771C7.16332 8.35916 7.08199 8.37535 6.99986 8.37535C6.91772 8.37535 6.8364 8.35916 6.76052 8.32771C6.68465 8.29626 6.61572 8.25016 6.55767 8.19205L0.307672 1.94205C0.190396 1.82477 0.124512 1.66571 0.124512 1.49986C0.124512 1.33401 0.190396 1.17495 0.307672 1.05767C0.424947 0.940396 0.584007 0.874512 0.749859 0.874512C0.915712 0.874512 1.07477 0.940396 1.19205 1.05767L6.99986 6.86627L12.8077 1.05767C12.8657 0.999603 12.9347 0.95354 13.0105 0.922113C13.0864 0.890687 13.1677 0.874512 13.2499 0.874512C13.332 0.874512 13.4133 0.890687 13.4892 0.922113C13.565 0.95354 13.634 0.999603 13.692 1.05767C13.7501 1.11574 13.7962 1.18468 13.8276 1.26055C13.859 1.33642 13.8752 1.41774 13.8752 1.49986C13.8752 1.58198 13.859 1.6633 13.8276 1.73917C13.7962 1.81504 13.7501 1.88398 13.692 1.94205Z" fill="#AAAAAA"/>
</svg>
